<?plantuml 1.2026.2?><svg xmlns="http://www.w3.org/2000/svg" xmlns:xlink="http://www.w3.org/1999/xlink" contentStyleType="text/css" data-diagram-type="DESCRIPTION" height="986px" preserveAspectRatio="none" style="width:454px;height:986px;background:#FFFFFF;" version="1.1" viewBox="0 0 454 986" width="454px" zoomAndPan="magnify"><defs/><g><!--cluster pc--><g class="cluster" data-qualified-name="pc" data-source-line="6" id="ent0002"><polygon fill="none" points="91,16,101,6,363,6,363,214.8,353,224.8,91,224.8,91,16" style="stroke:#181818;stroke-width:1;"/><line style="stroke:#181818;stroke-width:1;" x1="353" x2="363" y1="16" y2="6"/><line style="stroke:#181818;stroke-width:1;" x1="91" x2="353" y1="16" y2="16"/><line style="stroke:#181818;stroke-width:1;" x1="353" x2="353" y1="16" y2="224.8"/><text fill="#000000" font-family="Arial" font-size="12" font-style="italic" lengthAdjust="spacing" textLength="48.0352" x="198.9824" y="30.2559">&#171;device&#187;</text><text fill="#000000" font-family="Arial" font-size="12" font-weight="bold" lengthAdjust="spacing" textLength="155.7188" x="145.1406" y="44.0547">&#1050;&#1086;&#1084;&#1087;&#1100;&#1102;&#1090;&#1077;&#1088; &#1087;&#1086;&#1083;&#1100;&#1079;&#1086;&#1074;&#1072;&#1090;&#1077;&#1083;&#1103;</text></g><!--cluster browser--><g class="cluster" data-qualified-name="pc.browser" data-source-line="7" id="ent0003"><polygon fill="none" points="123,83,133,73,331,73,331,182.8,321,192.8,123,192.8,123,83" style="stroke:#181818;stroke-width:1;"/><line style="stroke:#181818;stroke-width:1;" x1="321" x2="331" y1="83" y2="73"/><line style="stroke:#181818;stroke-width:1;" x1="123" x2="321" y1="83" y2="83"/><line style="stroke:#181818;stroke-width:1;" x1="321" x2="321" y1="83" y2="192.8"/><text fill="#000000" font-family="Arial" font-size="12" font-style="italic" lengthAdjust="spacing" textLength="132.082" x="156.959" y="97.2559">&#171;executionEnvironment&#187;</text><text fill="#000000" font-family="Arial" font-size="12" font-weight="bold" lengthAdjust="spacing" textLength="49.2715" x="198.3643" y="111.0547">&#1041;&#1088;&#1072;&#1091;&#1079;&#1077;&#1088;</text></g><!--cluster helios--><g class="cluster" data-qualified-name="helios" data-source-line="12" id="ent0005"><polygon fill="none" points="16,295.8,26,285.8,384,285.8,384,760.99,374,770.99,16,770.99,16,295.8" style="stroke:#181818;stroke-width:1;"/><line style="stroke:#181818;stroke-width:1;" x1="374" x2="384" y1="295.8" y2="285.8"/><line style="stroke:#181818;stroke-width:1;" x1="16" x2="374" y1="295.8" y2="295.8"/><line style="stroke:#181818;stroke-width:1;" x1="374" x2="374" y1="295.8" y2="770.99"/><text fill="#000000" font-family="Arial" font-size="12" font-style="italic" lengthAdjust="spacing" textLength="48.0352" x="171.9824" y="310.0559">&#171;device&#187;</text><text fill="#000000" font-family="Arial" font-size="12" font-weight="bold" lengthAdjust="spacing" textLength="95.3555" x="148.3223" y="323.8547">helios.cs.ifmo.ru</text></g><!--cluster workers--><g class="cluster" data-qualified-name="helios.workers" data-source-line="13" id="ent0006"><polygon fill="none" points="48,587.4,58,577.4,352,577.4,352,728.99,342,738.99,48,738.99,48,587.4" style="stroke:#181818;stroke-width:1;"/><line style="stroke:#181818;stroke-width:1;" x1="342" x2="352" y1="587.4" y2="577.4"/><line style="stroke:#181818;stroke-width:1;" x1="48" x2="342" y1="587.4" y2="587.4"/><line style="stroke:#181818;stroke-width:1;" x1="342" x2="342" y1="587.4" y2="738.99"/><text fill="#000000" font-family="Arial" font-size="12" font-style="italic" lengthAdjust="spacing" textLength="132.082" x="129.959" y="601.6559">&#171;executionEnvironment&#187;</text><text fill="#000000" font-family="Arial" font-size="12" font-weight="bold" lengthAdjust="spacing" textLength="90.0762" x="150.9619" y="615.4547">Payara Server 6</text><text fill="#000000" font-family="Arial" font-size="12" font-weight="bold" lengthAdjust="spacing" textLength="111.7793" x="140.1104" y="629.2535">&#1076;&#1086;&#1084;&#1077;&#1085; soa-workers</text><text fill="#000000" font-family="Arial" font-size="12" font-weight="bold" lengthAdjust="spacing" textLength="73.3594" x="159.3203" y="643.0523">HTTPS :9981</text></g><!--cluster hrdomain--><g class="cluster" data-qualified-name="helios.hrdomain" data-source-line="17" id="ent0009"><polygon fill="none" points="70,362.8,80,352.8,278,352.8,278,504.4,268,514.4,70,514.4,70,362.8" style="stroke:#181818;stroke-width:1;"/><line style="stroke:#181818;stroke-width:1;" x1="268" x2="278" y1="362.8" y2="352.8"/><line style="stroke:#181818;stroke-width:1;" x1="70" x2="268" y1="362.8" y2="362.8"/><line style="stroke:#181818;stroke-width:1;" x1="268" x2="268" y1="362.8" y2="514.4"/><text fill="#000000" font-family="Arial" font-size="12" font-style="italic" lengthAdjust="spacing" textLength="132.082" x="103.959" y="377.0559">&#171;executionEnvironment&#187;</text><text fill="#000000" font-family="Arial" font-size="12" font-weight="bold" lengthAdjust="spacing" textLength="90.0762" x="124.9619" y="390.8547">Payara Server 6</text><text fill="#000000" font-family="Arial" font-size="12" font-weight="bold" lengthAdjust="spacing" textLength="77.7539" x="131.123" y="404.6535">&#1076;&#1086;&#1084;&#1077;&#1085; soa-hr</text><text fill="#000000" font-family="Arial" font-size="12" font-weight="bold" lengthAdjust="spacing" textLength="73.3594" x="133.3203" y="418.4523">HTTPS :8969</text></g><!--cluster pgnode--><g class="cluster" data-qualified-name="pgnode" data-source-line="22" id="ent0011"><polygon fill="none" points="251,841.99,261,831.99,437,831.99,437,959.39,427,969.39,251,969.39,251,841.99" style="stroke:#181818;stroke-width:1;"/><line style="stroke:#181818;stroke-width:1;" x1="427" x2="437" y1="841.99" y2="831.99"/><line style="stroke:#181818;stroke-width:1;" x1="251" x2="427" y1="841.99" y2="841.99"/><line style="stroke:#181818;stroke-width:1;" x1="427" x2="427" y1="841.99" y2="969.39"/><text fill="#000000" font-family="Arial" font-size="12" font-style="italic" lengthAdjust="spacing" textLength="48.0352" x="315.9824" y="856.2459">&#171;device&#187;</text><text fill="#000000" font-family="Arial" font-size="12" font-weight="bold" lengthAdjust="spacing" textLength="14.6602" x="332.6699" y="870.0447">pg</text></g><!--entity spa--><g class="entity" data-qualified-name="pc.browser.spa" data-source-line="8" id="ent0004"><rect fill="#F1F1F1" height="36.7988" rx="2.5" ry="2.5" style="stroke:#181818;stroke-width:0.5;" width="88.6934" x="172.65" y="132"/><polygon fill="#F1F1F1" points="244.3434,137,244.3434,151,256.3434,151,256.3434,143,250.3434,137,244.3434,137" style="stroke:#181818;stroke-width:0.5;"/><line style="stroke:#181818;stroke-width:0.5;" x1="250.3434" x2="250.3434" y1="137" y2="143"/><line style="stroke:#181818;stroke-width:0.5;" x1="256.3434" x2="250.3434" y1="143" y2="143"/><text fill="#000000" font-family="Arial" font-size="12" lengthAdjust="spacing" textLength="58.6934" x="182.65" y="156.2559">React SPA</text></g><!--entity ws--><g class="entity" data-qualified-name="helios.workers.ws" data-source-line="14" id="ent0007"><rect fill="#F1F1F1" height="50.5977" rx="2.5" ry="2.5" style="stroke:#181818;stroke-width:0.5;" width="130.6816" x="71.66" y="664.4"/><polygon fill="#F1F1F1" points="185.3416,669.4,185.3416,683.4,197.3416,683.4,197.3416,675.4,191.3416,669.4,185.3416,669.4" style="stroke:#181818;stroke-width:0.5;"/><line style="stroke:#181818;stroke-width:0.5;" x1="191.3416" x2="191.3416" y1="669.4" y2="675.4"/><line style="stroke:#181818;stroke-width:0.5;" x1="197.3416" x2="191.3416" y1="675.4" y2="675.4"/><text fill="#000000" font-family="Arial" font-size="12" lengthAdjust="spacing" textLength="100.6816" x="81.66" y="688.6559">worker-service.war</text><text fill="#000000" font-family="Arial" font-size="12" lengthAdjust="spacing" textLength="19.3477" x="81.66" y="702.4547">/api</text></g><!--entity site--><g class="entity" data-qualified-name="helios.workers.site" data-source-line="15" id="ent0008"><rect fill="#F1F1F1" height="50.5977" rx="2.5" ry="2.5" style="stroke:#181818;stroke-width:0.5;" width="71.3438" x="237.33" y="664.4"/><polygon fill="#F1F1F1" points="291.6738,669.4,291.6738,683.4,303.6738,683.4,303.6738,675.4,297.6738,669.4,291.6738,669.4" style="stroke:#181818;stroke-width:0.5;"/><line style="stroke:#181818;stroke-width:0.5;" x1="297.6738" x2="297.6738" y1="669.4" y2="675.4"/><line style="stroke:#181818;stroke-width:0.5;" x1="303.6738" x2="297.6738" y1="675.4" y2="675.4"/><text fill="#000000" font-family="Arial" font-size="12" lengthAdjust="spacing" textLength="41.3438" x="247.33" y="688.6559">site.war</text><text fill="#000000" font-family="Arial" font-size="12" lengthAdjust="spacing" textLength="3.334" x="247.33" y="702.4547">/</text></g><!--entity hr--><g class="entity" data-qualified-name="helios.hrdomain.hr" data-source-line="18" id="ent0010"><rect fill="#F1F1F1" height="50.5977" rx="2.5" ry="2.5" style="stroke:#181818;stroke-width:0.5;" width="105.3457" x="106.33" y="439.8"/><polygon fill="#F1F1F1" points="194.6757,444.8,194.6757,458.8,206.6757,458.8,206.6757,450.8,200.6757,444.8,194.6757,444.8" style="stroke:#181818;stroke-width:0.5;"/><line style="stroke:#181818;stroke-width:0.5;" x1="200.6757" x2="200.6757" y1="444.8" y2="450.8"/><line style="stroke:#181818;stroke-width:0.5;" x1="206.6757" x2="200.6757" y1="450.8" y2="450.8"/><text fill="#000000" font-family="Arial" font-size="12" lengthAdjust="spacing" textLength="75.3457" x="116.33" y="464.0559">hr-service.war</text><text fill="#000000" font-family="Arial" font-size="12" lengthAdjust="spacing" textLength="14.0039" x="116.33" y="477.8547">/hr</text></g><!--entity db--><g class="entity" data-qualified-name="pgnode.db" data-source-line="23" id="ent0012"><path d="M266.96,892.99 C266.96,882.99 344.001,882.99 344.001,882.99 C344.001,882.99 421.042,882.99 421.042,892.99 L421.042,943.3865 C421.042,953.3865 344.001,953.3865 344.001,953.3865 C344.001,953.3865 266.96,953.3865 266.96,943.3865 L266.96,892.99" fill="#F1F1F1" style="stroke:#181818;stroke-width:0.5;"/><path d="M266.96,892.99 C266.96,902.99 344.001,902.99 344.001,902.99 C344.001,902.99 421.042,902.99 421.042,892.99" fill="none" style="stroke:#181818;stroke-width:0.5;"/><text fill="#000000" font-family="Arial" font-size="12" font-style="italic" lengthAdjust="spacing" textLength="132.082" x="277.96" y="918.2459">&#171;executionEnvironment&#187;</text><text fill="#000000" font-family="Arial" font-size="12" lengthAdjust="spacing" textLength="65.3672" x="311.3174" y="932.0447">PostgreSQL</text><text fill="#000000" font-family="Arial" font-size="12" lengthAdjust="spacing" textLength="48.0176" x="311.3174" y="945.8435">&#1041;&#1044; studs</text></g><!--link browser to workers--><g class="link" data-entity-1="ent0003" data-entity-2="ent0006" data-link-type="dependency" data-source-line="26" id="lnk13"><path d="M328.1882,192.9758 C328.2976,193.266 328.407,193.557 328.5163,193.8489 C328.7348,194.4326 328.953,195.0196 329.1708,195.6096 C330.9127,200.33 332.6238,205.2466 334.2294,210.2636 C337.4406,220.2975 340.23,230.7325 342,240.8 C359.105,338.06 359.73,449.05 356.0175,536.2113 C355.0894,558.0016 353.8902,578.3026 352.6096,596.5274 C352.4495,598.8055 352.2882,601.0512 352.1259,603.2633 C352.0853,603.8163 352.4881,598.3836 352.4475,598.9325" fill="none" id="browser-to-workers" style="stroke:#181818;stroke-width:1;"/><polygon fill="#181818" points="352.0041,604.916,356.6582,596.2363,352.3736,599.9297,348.6801,595.6451,352.0041,604.916" style="stroke:#181818;stroke-width:1;"/><text fill="#000000" font-family="Arial" font-size="12" lengthAdjust="spacing" textLength="39.334" x="379.8629" y="462.8559">HTTPS</text><text fill="#000000" font-family="Arial" font-size="12" lengthAdjust="spacing" textLength="81.3398" x="358.86" y="476.6547">(SSH-&#1090;&#1091;&#1085;&#1085;&#1077;&#1083;&#1100;)</text></g><!--link browser to hrdomain--><g class="link" data-entity-1="ent0003" data-entity-2="ent0009" data-link-type="dependency" data-source-line="27" id="lnk14"><path d="M300.5113,193.1357 C300.1276,194.222 299.7293,195.3129 299.3158,196.4059 C297.6617,200.778 295.765,205.1855 293.5931,209.4834 C289.2494,218.0794 283.805,226.2375 277,232.8 C269.51,240.02 261.01,232.3 255,240.8 C240.8975,260.7425 233.615,284.3931 230.6498,308.7189 C229.1673,320.8818 228.764,333.2135 229.1273,345.3348 C229.1727,346.85 229.2301,348.3619 229.2988,349.8697 C229.3332,350.6237 229.0518,345.385 229.0918,346.1369" fill="none" id="browser-to-hrdomain" style="stroke:#181818;stroke-width:1;"/><polygon fill="#181818" points="229.4104,352.1284,232.9268,342.9287,229.1449,347.1355,224.9381,343.3535,229.4104,352.1284" style="stroke:#181818;stroke-width:1;"/><text fill="#000000" font-family="Arial" font-size="12" lengthAdjust="spacing" textLength="39.334" x="277.0029" y="253.0559">HTTPS</text><text fill="#000000" font-family="Arial" font-size="12" lengthAdjust="spacing" textLength="81.3398" x="256" y="266.8547">(SSH-&#1090;&#1091;&#1085;&#1085;&#1077;&#1083;&#1100;)</text></g><!--link hrdomain to workers--><g class="link" data-entity-1="ent0009" data-entity-2="ent0006" data-link-type="dependency" data-source-line="28" id="lnk15"><path d="M235.3309,514.4672 C235.2835,514.5782 235.2361,514.6892 235.1886,514.8002 C234.4288,516.576 233.6542,518.3479 232.8665,520.1056 C231.2911,523.6211 229.6638,527.08 228,530.4 C226.12,534.14 224.16,534.37 223,538.4 C221.16,544.8 218.47,548.5 223,553.4 C238.44,570.09 308.37,545.89 325,561.4 C327.5738,563.8 329.9027,566.3865 332.0073,569.1275 C333.0596,570.498 334.0558,571.9072 334.9985,573.3509 C335.4698,574.0728 335.9277,574.8033 336.3726,575.542 C336.595,575.9113 336.8142,576.2827 337.0301,576.6561 C337.1381,576.8427 334.2867,571.81 334.3931,571.9977" fill="none" id="hrdomain-to-workers" style="stroke:#181818;stroke-width:1;"/><polygon fill="#181818" points="337.3516,577.2176,336.3938,567.4154,334.8862,572.8677,329.4339,571.3601,337.3516,577.2176" style="stroke:#181818;stroke-width:1;"/><text fill="#000000" font-family="Arial" font-size="12" lengthAdjust="spacing" textLength="113.3438" x="224" y="550.6559">HTTPS, REST/JSON</text></g><!--link workers to db--><g class="link" data-entity-1="ent0006" data-entity-2="ent0012" data-link-type="dependency" data-source-line="29" id="lnk16"><path d="M344,739.1171 C344,739.6639 344,740.2138 344,740.7666 C344,741.8723 344,742.9898 344,744.1184 C344,746.3756 344,748.6772 344,751.0178 C344,755.699 344,760.5358 344,765.4838 C344,805.0675 344,845.765 344,876.79" fill="none" id="workers-to-db" style="stroke:#181818;stroke-width:1;"/><polygon fill="#181818" points="344,882.79,348,873.79,344,877.79,340,873.79,344,882.79" style="stroke:#181818;stroke-width:1;"/><text fill="#000000" font-family="Arial" font-size="12" lengthAdjust="spacing" textLength="64.6992" x="354.6621" y="799.2459">JDBC :5432</text><text fill="#000000" font-family="Arial" font-size="12" lengthAdjust="spacing" textLength="84.0234" x="345" y="813.0447">jdbc/workersDS</text></g><?plantuml-src ZPBVQjim5CRl_HG7NtKm9xJRIXDAe5ixIXbTLkNIDxAbn5fZoKXol3yKIdiRDWgxwbEKiRABzSyho6zKoKvCcvGmV25qplT9lqy-wfZn34kSGYguY1CfKWfQvjHJJKSbc8Y2yH4CyLWzxX0wnFbOlnTS7s9ht94CZv_l8_QDmlg6vt51AFZcqjoP6tDVJiiVvPcvBa_1tDlIlt9g_jhrjxboPRl_wSFsDg4J5jDU3x22B8Rl7i3id8lor4hFhScUuQJq2urppGJVunCc1KyfrxKnag9GL5Pk02mr6-9OWtz4tOBwExvJgGpR_ebtCaTDw9W9rOfLYmrJqPBv8b0jU0JLnrzjV41KJknrco4tVwgqr-OMbC118UGnbIha-uD17q6tqzbQNuq-SooXr_N0fd8uhGBBaBTnngeaXLfGAwRdcZggtLTP_nSyaGtpLcUpivevaKIacF4bw6GHE95-RNZwyDbewTUFgeuxa62D8wmSj51w92dwzC7oNfXVe7HEr6es4hbhvWCH1BtcXRjG1Gpv6aBxGNbcH-lMVcuIfo-UE9fygosDx9bRNiBH7Xgq3z37Gs_USZ8IMSN1xjjtq7tp-jL6o3-JA6xF5Ble0G00?></g></svg>